<?xml version="1.0" encoding="UTF-8"?>
<svg version="1.1" xmlns="http://www.w3.org/2000/svg" width="238" height="293">
<path d="M0 0 C78.54 0 157.08 0 238 0 C238 96.69 238 193.38 238 293 C159.46 293 80.92 293 0 293 C0 196.31 0 99.62 0 0 Z " fill="#F8ED70" transform="translate(0,0)"/>
<path d="M0 0 C78.54 0 157.08 0 238 0 C238 96.69 238 193.38 238 293 C159.46 293 80.92 293 0 293 C0 196.31 0 99.62 0 0 Z M48 66 C47.33613281 66.51820312 46.67226563 67.03640625 45.98828125 67.5703125 C27.05152029 82.85800188 15.7872044 107.42900702 12 131 C11.61771016 135.80200518 11.56857019 140.55976383 11.625 145.375 C11.63587646 146.64577393 11.64675293 147.91654785 11.65795898 149.22583008 C12.16760097 179.29470711 24.58980728 205.28942948 45.84130859 226.32446289 C66.64170711 246.08213701 93.99607061 254.56121454 122.2265625 254.20703125 C147.21040013 253.53480188 170.0348795 244.14919026 189 228 C189.85078125 227.33226562 190.7015625 226.66453125 191.578125 225.9765625 C203.45813093 216.28094476 211.74357037 201.7708545 218 188 C218.58201172 186.83017578 218.58201172 186.83017578 219.17578125 185.63671875 C229.95233396 162.21123932 228.08770601 132.53003817 219.5625 108.78125 C209.67132332 84.05330829 190.78287195 61.06359988 166.01025391 50.12109375 C125.09847098 32.83417023 82.19589176 36.98883459 48 66 Z " fill="#3F96FC" transform="translate(0,0)"/>
<path d="M0 0 C2.9375 0.34765625 2.9375 0.34765625 5.8125 1.84765625 C9.60555722 3.66832371 12.83202576 3.9811181 16.9375 3.34765625 C18.071875 2.83203125 19.20625 2.31640625 20.375 1.78515625 C24.93914569 -0.05651657 28.22536008 0.08132249 32.9375 1.34765625 C36.47479459 3.25235334 38.68832981 5.0591434 41.3125 8.09765625 C44.10084005 10.487662 44.60463198 10.68479638 48.0625 10.72265625 C51.84654191 10.50207348 51.84654191 10.50207348 54.9375 9.34765625 C66.25841631 8.30218904 66.25841631 8.30218904 71.25 11.41015625 C73.38142985 15.12042303 73.61546661 17.12919734 72.9375 21.34765625 C70.55400722 25.32014422 68.34860531 26.99981851 63.9375 28.34765625 C63.9375 29.33765625 63.9375 30.32765625 63.9375 31.34765625 C64.5975 31.53328125 65.2575 31.71890625 65.9375 31.91015625 C73.95973581 35.75414424 79.27154173 42.35152428 82.9375 50.34765625 C83.59300528 52.78735139 83.82713814 54.80933357 83.9375 57.34765625 C83.2775 57.34765625 82.6175 57.34765625 81.9375 57.34765625 C81.68097656 56.74179688 81.42445313 56.1359375 81.16015625 55.51171875 C77.5559228 47.62366573 72.27598737 38.82675302 63.9375 35.34765625 C64.37320313 35.84394531 64.80890625 36.34023437 65.2578125 36.8515625 C66.50793208 38.27756471 67.75513461 39.70612747 69 41.13671875 C70.17419221 42.47662357 71.35889605 43.8075452 72.5625 45.12109375 C76.37338147 49.34879038 79.93918426 53.96910493 81.9375 59.34765625 C81.56640625 61.6171875 81.56640625 61.6171875 80.9375 63.34765625 C80.51339844 62.55101562 80.08929688 61.754375 79.65234375 60.93359375 C73.89931463 50.43098384 73.89931463 50.43098384 63.9375 44.34765625 C63.9375 45.33765625 63.9375 46.32765625 63.9375 47.34765625 C64.5046875 47.58226562 65.071875 47.816875 65.65625 48.05859375 C72.85554857 52.12669054 77.77393042 59.92014506 80.9375 67.34765625 C79.6175 67.67765625 78.2975 68.00765625 76.9375 68.34765625 C77.38222656 68.89292969 77.82695312 69.43820313 78.28515625 70 C81.20078845 73.88529575 83.48871721 76.97245057 83.1875 81.97265625 C82.22697198 86.8696339 79.68894401 90.15164448 75.9375 93.34765625 C73.10817739 94.90378368 71.2991507 95.33036421 68.078125 95.484375 C63.79740981 96.66103925 62.4268549 99.20693025 60.1875 102.78515625 C49.97739485 117.98316788 37.60424975 127.22747249 19.9375 132.34765625 C8.22850359 134.63760758 -2.00415105 132.7930925 -12.0625 126.34765625 C-28.26136547 113.29857018 -38.76755144 96.28268701 -41.0625 75.34765625 C-41.93671921 59.95838356 -39.74142145 46.38857065 -33.0625 32.34765625 C-32.60875 31.3525 -32.155 30.35734375 -31.6875 29.33203125 C-28.94087362 23.74921459 -26.64102509 20.43603462 -21.1328125 17.50390625 C-14.54530362 13.82484469 -9.68626238 7.94343665 -5.1171875 2.0703125 C-3.0625 0.34765625 -3.0625 0.34765625 0 0 Z " fill="#F9E8D3" transform="translate(96.0625,94.65234375)"/>
<path d="M0 0 C4.01066993 2.25517998 7.74169799 4.74169799 11 8 C14.48623516 8.84394286 17.99246409 9.47068621 21.51953125 10.12109375 C26.73097823 11.43711571 29.13273677 12.7389441 32.2109375 17.21484375 C33.31087087 19.06850843 34.37547894 20.9383541 35.4296875 22.81835938 C37.42281263 26.16040312 39.0206162 28.25852724 42.5 30.09375 C46.31850624 32.17347215 48.07457977 34.0800171 50.625 37.5625 C51.33914062 38.51253906 52.05328125 39.46257812 52.7890625 40.44140625 C58.36175324 48.96314865 60.90082728 56.68891597 60.75 66.875 C60.73996948 68.48725464 60.73996948 68.48725464 60.72973633 70.13208008 C60.35974002 82.30433147 56.78436555 93.60905788 51.25390625 104.41015625 C49.76319584 107.48910018 49.93488651 108.80465952 51 112 C51.33 112.66 51.66 113.32 52 114 C52.82535036 120.34340702 52.25169561 125.01708171 48.48046875 130.24609375 C45.11780272 134.22983267 42.54151891 136.73573961 37.171875 137.65625 C31.88275894 138.89540395 29.92963786 142.26979795 27.0625 146.625 C15.7885138 162.59943114 1.36814763 170.98468879 -17.5 175.61328125 C-31.45544169 177.77201364 -43.5801173 174.99931029 -55.265625 167.11328125 C-70.70237258 155.18288062 -79.97722395 139.55707273 -82.76416016 120.12744141 C-84.24354592 106.78234044 -83.37544002 94.50162893 -79.19140625 81.75 C-77.08156267 75.91841004 -77.08156267 75.91841004 -77.77734375 70.015625 C-78.16019531 69.43296875 -78.54304688 68.8503125 -78.9375 68.25 C-81.529614 63.55179338 -81.77964222 59.27144453 -81 54 C-80.04605164 51.97762948 -79.05464649 49.9717304 -78 48 C-78.28502545 46.32439582 -78.62701407 44.65824316 -79 43 C-79.62991751 35.97192041 -80.04820057 29.59191251 -75.69921875 23.72265625 C-72.56052976 20.540675 -69.00664467 17.98081309 -65 16 C-64.01 16 -63.02 16 -62 16 C-62.33 16.721875 -62.66 17.44375 -63 18.1875 C-64.02083172 21.05858922 -64.32596895 22.98478721 -64 26 C-62.13502523 28.28143813 -62.13502523 28.28143813 -59.1875 28.3125 C-53.57992551 27.7627378 -50.99683694 25.11974319 -47.4375 21 C-46.87933594 20.319375 -46.32117188 19.63875 -45.74609375 18.9375 C-42.21472544 15.0190242 -39.16468182 13.14360297 -33.8203125 12.7890625 C-31.36219468 12.67992831 -28.9038522 12.57573926 -26.4453125 12.4765625 C-20.8343486 11.70044278 -17.9134937 9.25224856 -14.4375 4.9375 C-10.04943203 -0.50451501 -6.94177389 -1.82079315 0 0 Z M-46.8125 46.1875 C-54.17564093 54.60099414 -54.17564093 54.60099414 -59 56.8125 C-64.4370474 59.33972018 -66.4478448 63.77663864 -69 69 C-69.45246094 69.90492187 -69.90492187 70.80984375 -70.37109375 71.7421875 C-79.62199936 91.122423 -80.71586271 112.31537895 -73.74609375 132.66015625 C-67.21451801 149.01579143 -55.73989117 163.01910619 -39.34375 170.15625 C-26.72249902 174.69990035 -13.67045136 170.64759237 -1.8828125 165.5078125 C2.97140372 162.9688864 6.95651434 159.6659106 11 156 C11.68707031 155.39414063 12.37414062 154.78828125 13.08203125 154.1640625 C16.77617604 150.710365 19.58856273 147.18367885 22.30297852 142.90527344 C27.06840747 135.42743657 27.06840747 135.42743657 30.32421875 133.93359375 C32.625 133.5625 32.625 133.5625 34.85546875 133.3671875 C38.82962375 132.68673109 41.41995935 129.95385335 44 127 C46.10751267 123.33476058 46.51324557 120.19150546 46 116 C44.19867777 112.79787307 44.19867777 112.79787307 42 110 C41.34 109.01 40.68 108.02 40 107 C41.32 106.34 42.64 105.68 44 105 C39.81848202 97.89141944 35.50098078 91.21572941 29 86 C28.34 86 27.68 86 27 86 C27 85.01 27 84.02 27 83 C35.33131518 86.91061733 40.36245602 93.65504616 44 102 C45.14137894 99.21582708 45.07035213 98.17321356 43.91796875 95.3359375 C39.99251589 88.61924841 35.73028622 83.27389258 30.0390625 77.9609375 C28 76 28 76 27 74 C35.95356186 78.95865666 41.00153948 86.79200678 45 96 C45.66 95.67 46.32 95.34 47 95 C45.25017205 84.5010323 39.30431243 77.44418519 30.91796875 71.1796875 C29.09136174 69.82536539 29.09136174 69.82536539 27 70 C27 69.01 27 68.02 27 67 C27.7425 66.773125 28.485 66.54625 29.25 66.3125 C32.66484607 64.6826871 34.0539825 63.2433625 36 60 C36.67796661 55.78154109 36.44392985 53.77276678 34.3125 50.0625 C29.16560514 46.85782962 23.91262955 47.4539788 18 48 C17.01 48.33 16.02 48.66 15 49 C9.92729117 49.67636118 9.92729117 49.67636118 7 49 C5.00242894 47.41131342 3.41484422 45.66206374 1.71875 43.7578125 C-1.60755624 40.35590839 -5.29430363 39.21321205 -10 38.625 C-13.15033872 38.87170047 -13.15033872 38.87170047 -16.375 40.5 C-20.8384848 42.34695923 -23.20464145 42.45670081 -28 42 C-30.01586684 41.03238392 -32.01753602 40.03432904 -34 39 C-40.61223562 37.69631099 -42.92742272 41.54358495 -46.8125 46.1875 Z " fill="#0C0C09" transform="translate(133,56)"/>
<path d="M0 0 C0.33 0 0.66 0 1 0 C2.24134807 30.1716544 -5.86026386 55.51236127 -25 79 C-25.68642578 79.88945312 -25.68642578 79.88945312 -26.38671875 80.796875 C-41.9312566 100.21641226 -68.72196607 112.68081088 -92.93359375 115.68359375 C-106.50819525 116.8944413 -119.85014742 116.77343596 -133 113 C-134.04800781 112.73316406 -135.09601563 112.46632813 -136.17578125 112.19140625 C-162.18109729 105.04708866 -185.23602698 87.15243842 -199 64 C-201.65864103 59.13623612 -203.87433654 54.11523292 -206 49 C-206.39960938 48.06671875 -206.79921875 47.1334375 -207.2109375 46.171875 C-211.33391942 35.8179204 -214.17143577 24.05458211 -212 13 C-211.01 12.67 -210.02 12.34 -209 12 C-208.34 12.33 -207.68 12.66 -207 13 C-206.34 12.34 -205.68 11.68 -205 11 C-204.67950684 11.57105469 -204.35901367 12.14210937 -204.02880859 12.73046875 C-197.17785746 24.92501636 -190.24442897 37.06551885 -183.17456055 49.13452148 C-179.30098736 55.7523478 -175.47769315 62.39660974 -171.6875 69.0625 C-166.91550917 77.45162353 -162.01570249 85.75448908 -157 94 C-154.37942156 90.77842113 -152.06227132 87.60897481 -150 84 C-145.30202214 84.90820097 -141.36414292 87.31797391 -137.16796875 89.52734375 C-124.07627183 95.61312641 -110.20685413 93.72270417 -97 89 C-88.8103131 85.70388784 -81.69320616 81.43502846 -74.98828125 75.69921875 C-73 74 -73 74 -70 72 C-65.62817415 78.19742346 -61.97723885 84.63888657 -58.515625 91.375 C-57.26550764 94.09681729 -57.26550764 94.09681729 -55 95 C-54.72704102 94.28046143 -54.45408203 93.56092285 -54.17285156 92.81958008 C-53.01939229 90.0466198 -51.70261313 87.5052063 -50.234375 84.88671875 C-49.68144775 83.89873291 -49.12852051 82.91074707 -48.55883789 81.89282227 C-47.96192139 80.83506592 -47.36500488 79.77730957 -46.75 78.6875 C-46.12665771 77.57882568 -45.50331543 76.47015137 -44.86108398 75.32788086 C-39.53585602 65.88645709 -34.08962342 56.51781369 -28.60546875 47.16796875 C-26.02531554 42.76535471 -23.46795995 38.3503723 -20.92578125 33.92578125 C-20.41667961 33.04023308 -20.41667961 33.04023308 -19.89729309 32.13679504 C-18.25325211 29.27633333 -16.61153657 26.41458996 -14.97290039 23.55102539 C-12.12342204 18.59110971 -9.26696496 13.69727798 -6 9 C-3.5625 9.375 -3.5625 9.375 -1 10 C-0.67 10.66 -0.34 11.32 0 12 C0 8.04 0 4.08 0 0 Z " fill="#F8ED71" transform="translate(225,138)"/>
<path d="M0 0 C-0.33 1.65 -0.66 3.3 -1 5 C-0.34 5 0.32 5 1 5 C0.67 7.31 0.34 9.62 0 12 C-0.66 12 -1.32 12 -2 12 C-1.01 12.99 -0.02 13.98 1 15 C1.33 11.7 1.66 8.4 2 5 C19.16 5 36.32 5 54 5 C48 13 48 13 44 15 C40.49999048 15.33313344 37.02113532 15.44097711 33.5078125 15.55859375 C26.98990876 16.3787754 23.50153442 19.11211683 19.375 24.0625 C15.81097163 28.320576 13.55829954 30.73894903 7.9375 31.3125 C5 31 5 31 3.0625 29.9375 C1.34993059 26.81457932 2.21880764 24.3651363 3 21 C3.66 20.01 4.32 19.02 5 18 C-2.1516843 21.17655456 -7.38890534 24.80849987 -11 32 C-11.39811998 35.1819732 -11.39811998 35.1819732 -11.25 38.5 C-11.23453125 39.6034375 -11.2190625 40.706875 -11.203125 41.84375 C-11.08378795 44.95174051 -11.08378795 44.95174051 -10.39453125 47.73828125 C-10 50 -10 50 -11.4375 52.6875 C-13.56976598 57.20790388 -13.7315461 61.0773044 -13 66 C-12.08364923 68.16106057 -11.06528135 70.05553141 -9.77734375 72.015625 C-8.0005645 76.5513228 -10.42362195 81.41171002 -11.86743164 85.80883789 C-18.07523861 105.37858413 -16.52885272 127.14439241 -7.3359375 145.5859375 C-2.9056202 153.59159858 2.35437044 159.71323444 9 166 C9.66 166.66 10.32 167.32 11 168 C10.56042969 168.40863281 10.12085937 168.81726563 9.66796875 169.23828125 C7.90002875 171.10559024 6.64448292 172.99152816 5.3125 175.1875 C4.65701172 176.26064453 4.65701172 176.26064453 3.98828125 177.35546875 C3.66214844 177.89816406 3.33601563 178.44085938 3 179 C0.07841579 176.2732142 -1.95604818 173.67061453 -3.8828125 170.17578125 C-4.40472168 169.23887451 -4.92663086 168.30196777 -5.46435547 167.33666992 C-6.01236816 166.33869385 -6.56038086 165.34071777 -7.125 164.3125 C-8.29570802 162.21028719 -9.46759077 160.10872817 -10.640625 158.0078125 C-11.21490234 156.97688477 -11.78917969 155.94595703 -12.38085938 154.88378906 C-14.49391561 151.12030591 -16.67088568 147.39817099 -18.875 143.6875 C-23.84016856 135.31014054 -28.70200532 126.87416448 -33.56005859 118.43432617 C-37.68211958 111.27498609 -41.82981931 104.13141649 -46 97 C-46.99 97.495 -46.99 97.495 -48 98 C-50.125 97.5625 -50.125 97.5625 -52 97 C-52.66 97.99 -53.32 98.98 -54 100 C-55.12132274 67.46870225 -46.11109439 41.13764314 -24 17 C-19.34341957 12.26754861 -13.98653752 8.4483226 -8.625 4.5625 C-8.0052832 4.11245605 -7.38556641 3.66241211 -6.74707031 3.19873047 C-2.24276092 0 -2.24276092 0 0 0 Z " fill="#F9EE70" transform="translate(66,54)"/>
<path d="M0 0 C4.34286981 0.95331288 6.51113361 2.36611755 9.375 5.625 C11.82653661 8.26531894 11.82653661 8.26531894 15.1171875 9.4921875 C18.29410831 9.50382457 20.9921875 9.00260417 24 8 C35.32091631 6.95453279 35.32091631 6.95453279 40.3125 10.0625 C42.44392985 13.77276678 42.67796661 15.78154109 42 20 C39.61650722 23.97248797 37.41110531 25.65216226 33 27 C33 27.99 33 28.98 33 30 C33.66 30.185625 34.32 30.37125 35 30.5625 C43.02223581 34.40648799 48.33404173 41.00386803 52 49 C52.65550528 51.43969514 52.88963814 53.46167732 53 56 C52.34 56 51.68 56 51 56 C50.74347656 55.39414063 50.48695313 54.78828125 50.22265625 54.1640625 C46.6184228 46.27600948 41.33848737 37.47909677 33 34 C33.43570313 34.49628906 33.87140625 34.99257812 34.3203125 35.50390625 C35.57043208 36.92990846 36.81763461 38.35847122 38.0625 39.7890625 C39.23669221 41.12896732 40.42139605 42.45988895 41.625 43.7734375 C45.43588147 48.00113413 49.00168426 52.62144868 51 58 C50.62890625 60.26953125 50.62890625 60.26953125 50 62 C49.57589844 61.20335937 49.15179688 60.40671875 48.71484375 59.5859375 C42.96181463 49.08332759 42.96181463 49.08332759 33 43 C33 43.99 33 44.98 33 46 C33.5671875 46.23460937 34.134375 46.46921875 34.71875 46.7109375 C41.91804857 50.77903429 46.83643042 58.57248881 50 66 C48.68 66.33 47.36 66.66 46 67 C46.44472656 67.54527344 46.88945312 68.09054688 47.34765625 68.65234375 C50.26328845 72.5376395 52.55121721 75.62479432 52.25 80.625 C51.28947198 85.52197765 48.75144401 88.80398823 45 92 C42.17067739 93.55612743 40.3616507 93.98270796 37.140625 94.13671875 C32.85990981 95.313383 31.4893549 97.859274 29.25 101.4375 C19.40865368 116.08660436 6.57143221 126.95962277 -11 131 C-14.41796875 130.625 -14.41796875 130.625 -17 130 C-16.319375 129.319375 -15.63875 128.63875 -14.9375 127.9375 C-14.48761719 127.48632812 -14.03773437 127.03515625 -13.57421875 126.5703125 C-12.43607014 125.43498808 -11.29208825 124.30550131 -10.14453125 123.1796875 C-9.51933594 122.56351562 -8.89414063 121.94734375 -8.25 121.3125 C-7.65703125 120.73113281 -7.0640625 120.14976562 -6.453125 119.55078125 C-4.90358196 118.04486026 -4.90358196 118.04486026 -4 116 C-3.34 116 -2.68 116 -2 116 C-1.773125 115.195625 -1.54625 114.39125 -1.3125 113.5625 C-0.22646647 110.61469469 0.92455213 108.30651451 2.5 105.625 C4.89640069 101.46134216 6.06023543 97.69882285 7 93 C6.01 93 5.02 93 4 93 C3.505 94.485 3.505 94.485 3 96 C2.34 96 1.68 96 1 96 C1 93.69 1 91.38 1 89 C-5.02144517 91.51470316 -10.79252758 94.39616058 -16.59765625 97.37890625 C-24.4968675 101.14259473 -31.68213362 102.62778593 -40.203125 100.01953125 C-45.49232406 97.90254887 -49.57207958 95.58380181 -54 92 C-54.99 91.67 -55.98 91.34 -57 91 C-57.33 92.32 -57.66 93.64 -58 95 C-63 88.183391 -63 88.183391 -63 83.6875 C-62.00161074 81.00432888 -61.30969495 79.66298037 -59 78 C-58.34 78 -57.68 78 -57 78 C-56.79246094 78.62390625 -56.58492188 79.2478125 -56.37109375 79.890625 C-54.39951209 82.92382756 -52.54837102 83.00391583 -49.0625 83.75 C-35.30365497 86.46872375 -20.90375511 84.7064415 -8 79 C-8 77.02 -8 75.04 -8 73 C-2.99563264 75.34758652 3.66741656 78.66207254 5.8046875 84.015625 C6.0625 85.9375 6.0625 85.9375 6 89 C9.21824065 87.32645318 9.21824065 87.32645318 9.73046875 84.3671875 C13.95819998 55.12088401 13.95819998 55.12088401 7.44921875 27.6328125 C5.67587908 26.04554059 4.14407558 25.01323403 2 24 C1.26523438 23.62875 0.53046875 23.2575 -0.2265625 22.875 C-1.10441406 22.441875 -1.10441406 22.441875 -2 22 C-1.34 20.68 -0.68 19.36 0 18 C1.65 18.33 3.3 18.66 5 19 C5 16.28662983 4.03441251 14.28181479 3.0625 11.75 C1.60534628 7.83164671 0.45195688 4.18060112 0 0 Z " fill="#EFD6B9" transform="translate(127,96)"/>
<path d="M0 0 C3.35463279 1.33028542 4.90174746 2.40036357 7.5625 4.6875 C12.27794929 8.6699779 17.08165007 10.14267792 22.95288086 11.66308594 C28.58983045 13.17397832 32.05785994 15.13785402 35.36328125 19.98828125 C35.88277344 20.89964844 36.40226562 21.81101562 36.9375 22.75 C39.72776107 27.32966762 42.5839347 30.3495387 46.70703125 33.70703125 C50.124721 36.79060877 52.38815948 40.44692357 54.625 44.4375 C55.04007812 45.16324219 55.45515625 45.88898438 55.8828125 46.63671875 C61.37010737 57.93747638 59.35947819 71.90616004 55.625 83.4375 C55.233125 84.675 54.84125 85.9125 54.4375 87.1875 C54.169375 87.93 53.90125 88.6725 53.625 89.4375 C51.56253743 86.96254491 50.35224649 84.80471185 49.0625 81.8125 C46.26117117 75.94410363 41.31922321 71.80921932 36.625 67.4375 C37.86336421 63.72240737 39.84604936 62.14867136 42.625 59.4375 C45.12804378 55.68293433 45.07780074 53.89004066 44.625 49.4375 C42.49845259 45.41224955 40.83997471 43.12658913 36.625 41.4375 C31.17029857 40.64800374 26.59819473 41.45011424 21.64453125 43.78125 C18.65544812 44.75255748 16.76317257 44.93075237 13.625 44.4375 C11.18158889 42.57932133 9.28220552 40.3425514 7.3125 38 C6.77560547 37.38833984 6.23871094 36.77667969 5.68554688 36.14648438 C4.3196059 34.58762361 2.97092422 33.01367564 1.625 31.4375 C0.48671964 30.08571042 0.48671964 30.08571042 -2.52734375 30.15234375 C-8.05334551 30.561885 -11.55384135 33.14787889 -16.19140625 36.00390625 C-19.89447652 37.67142378 -21.53329981 37.59593694 -25.375 36.4375 C-26.365 35.7775 -27.355 35.1175 -28.375 34.4375 C-31.51658795 33.67913183 -34.22754531 33.70425377 -37.375 34.4375 C-40.65691606 36.66407196 -43.17725719 39.4294342 -45.8125 42.375 C-47.20551569 43.86469989 -48.59997548 45.35305114 -49.99609375 46.83984375 C-50.5986499 47.50491943 -51.20120605 48.16999512 -51.82202148 48.85522461 C-54.30778852 51.38788554 -56.23937805 51.66182576 -59.6875 51.8125 C-63.34623966 51.76544226 -64.21116825 51.55601659 -67.3125 49.3125 C-72.06513849 42.68760999 -72.2152001 35.32937948 -71.375 27.4375 C-70.34435268 24.72962001 -69.4286297 23.55153057 -67.375 21.4375 C-66.715 21.4375 -66.055 21.4375 -65.375 21.4375 C-65.106875 22.38625 -64.83875 23.335 -64.5625 24.3125 C-63.62513412 27.69017273 -63.62513412 27.69017273 -60.375 29.4375 C-55.80106445 29.8873953 -53.41647984 29.96886727 -49.3125 27.875 C-46.40001423 25.45825649 -43.8068385 22.88848692 -41.1640625 20.1875 C-37.54038849 16.64294551 -34.3670065 13.71638091 -29.25 13 C-26.34593389 13.4419231 -24.0805376 14.32753586 -21.375 15.4375 C-18.91867668 16.18771244 -18.91867668 16.18771244 -16.375 15.4375 C-13.40067258 12.71172362 -11.07852677 9.38636751 -8.68359375 6.15625 C-4.27490197 0.55415396 -4.27490197 0.55415396 0 0 Z " fill="#D5D14A" transform="translate(129.375,58.5625)"/>
<path d="M0 0 C3.875 4.75 3.875 4.75 5 7 C5.33 6.01 5.66 5.02 6 4 C9.46919991 4.6474774 11.91242047 6.05012456 14.875 7.9375 C22.2086578 12.38893421 28.39886184 14.20625718 37 13 C43.94674162 10.84535711 50.57125817 8.10740373 56.6875 4.125 C60 2 60 2 64 2 C64 4.31 64 6.62 64 9 C64.433125 8.505 64.86625 8.01 65.3125 7.5 C67 6 67 6 70 6 C69.55818053 12.28365473 68.06204957 16.57116258 64.9375 22 C64.56044922 22.67933594 64.18339844 23.35867187 63.79492188 24.05859375 C62.8749242 25.71226047 61.93910161 27.35710697 61 29 C60.34 29 59.68 29 59 29 C58.77570313 29.56203125 58.55140625 30.1240625 58.3203125 30.703125 C56.61328077 33.67275417 54.45193456 35.50344167 51.875 37.75 C50.96492188 38.54921875 50.05484375 39.3484375 49.1171875 40.171875 C48.41851562 40.77515625 47.71984375 41.3784375 47 42 C47.33 42.66 47.66 43.32 48 44 C43.32996676 46.33501662 36.95678263 45.1278771 32.1171875 43.734375 C15.53991627 37.9843252 4.86546486 25.02140946 -2.8984375 9.83203125 C-4.0104682 6.97308706 -4.23282468 5.0322643 -4 2 C-2.68 1.34 -1.36 0.68 0 0 Z " fill="#F9E8D3" transform="translate(64,183)"/>
<path d="M0 0 C14.85 0.495 14.85 0.495 30 1 C21.50687944 16.57072103 12.96580936 32.12101103 3.91259766 47.375 C-0.07180523 54.09309635 -3.97494654 60.85772752 -7.875 67.625 C-8.51816162 68.74060303 -9.16132324 69.85620605 -9.82397461 71.00561523 C-12.89243651 76.33152207 -15.95537392 81.66042963 -19 87 C-22.65253863 85.78248712 -22.87539346 84.95858114 -24.6640625 81.66796875 C-25.38722656 80.34635742 -25.38722656 80.34635742 -26.125 78.99804688 C-26.62 78.07056641 -27.115 77.14308594 -27.625 76.1875 C-28.12773437 75.27162109 -28.63046875 74.35574219 -29.1484375 73.41210938 C-33.62490777 65.15109637 -33.62490777 65.15109637 -34 62 C-32.49280929 59.42183145 -31.02867044 57.25615552 -29.1875 54.9375 C-28.68774658 54.30062256 -28.18799316 53.66374512 -27.6730957 53.00756836 C-23.94289813 48.52791932 -21.04534774 46.66039976 -15.23046875 45.625 C-10.56738047 44.3183553 -8.2272518 40.05102356 -5.859375 36.09375 C-4.82985046 33.58545385 -4.73367984 31.64256683 -4.75 28.9375 C-4.74484375 28.08027344 -4.7396875 27.22304687 -4.734375 26.33984375 C-4.85007512 23.72947202 -4.85007512 23.72947202 -7 21 C-6.65293024 16.55626757 -5.27114916 12.87481596 -3.5 8.8125 C-2.23219545 5.88254471 -1.00973092 3.02919275 0 0 Z " fill="#3F96F9" transform="translate(189,146)"/>
<path d="M0 0 C1.19077148 0.00491455 2.38154297 0.0098291 3.60839844 0.01489258 C20.00846801 0.23303811 37.50050377 3.76280226 51.75 12.3125 C52.81546953 15.5089086 52.82427838 17.96997276 52.75 21.3125 C52.255 20.3225 52.255 20.3225 51.75 19.3125 C50.8120459 19.32821045 49.8740918 19.3439209 48.90771484 19.36010742 C45.40765795 19.41141965 41.9080043 19.44893872 38.40771484 19.47729492 C36.89658273 19.49232543 35.38549382 19.51275564 33.87451172 19.53881836 C31.69487813 19.57545689 29.51582425 19.59228338 27.3359375 19.60546875 C26.0267334 19.6211792 24.7175293 19.63688965 23.36865234 19.65307617 C19.47774322 19.28687605 17.16193677 18.13209887 13.75 16.3125 C9.49341661 16.52893644 7.30991776 16.93922149 3.75 19.3125 C1.37715149 19.55300903 1.37715149 19.55300903 -1.45581055 19.53955078 C-2.51668381 19.53939972 -3.57755707 19.53924866 -4.670578 19.53909302 C-5.81440445 19.52877045 -6.9582309 19.51844788 -8.13671875 19.5078125 C-9.30886429 19.5049826 -10.48100983 19.50215271 -11.68867493 19.49923706 C-15.43838643 19.48802753 -19.18786049 19.46292128 -22.9375 19.4375 C-25.4772101 19.42747121 -28.01692393 19.41834519 -30.55664062 19.41015625 C-36.78785213 19.38808563 -43.01888579 19.35355026 -49.25 19.3125 C-49.58 22.6125 -49.91 25.9125 -50.25 29.3125 C-51.24 28.9825 -52.23 28.6525 -53.25 28.3125 C-53.25 27.6525 -53.25 26.9925 -53.25 26.3125 C-52.59 26.3125 -51.93 26.3125 -51.25 26.3125 C-50.92 24.0025 -50.59 21.6925 -50.25 19.3125 C-50.91 19.3125 -51.57 19.3125 -52.25 19.3125 C-52.0703125 16.50390625 -52.0703125 16.50390625 -51.25 13.3125 C-37.78663006 2.74782715 -16.44158756 -0.08041321 0 0 Z " fill="#F9EE6F" transform="translate(117.25,39.6875)"/>
<path d="M0 0 C2.35877171 0.37165521 3.65328129 0.6094064 5.265625 2.42578125 C8.40262817 8.43837066 8.85468923 14.29168337 8 21 C6.05417452 23.91873822 5.4551331 24.5273915 2.515625 26.0078125 C1.82726562 26.35457031 1.13890625 26.70132813 0.4296875 27.05859375 C-0.28960937 27.41050781 -1.00890625 27.76242188 -1.75 28.125 C-2.45382813 28.48464844 -3.15765625 28.84429687 -3.8828125 29.21484375 C-7.88866757 31.20287963 -11.46569487 32.71028957 -16 33 C-16.763125 32.525625 -17.52625 32.05125 -18.3125 31.5625 C-22.23541652 29.28173458 -25.56886072 29.00027823 -30 30 C-33.28357098 32.22390786 -35.80241052 34.99210559 -38.4375 37.9375 C-39.83051569 39.42719989 -41.22497548 40.91555114 -42.62109375 42.40234375 C-43.2236499 43.06741943 -43.82620605 43.73249512 -44.44702148 44.41772461 C-46.93278852 46.95038554 -48.86437805 47.22432576 -52.3125 47.375 C-55.97123966 47.32794226 -56.83616825 47.11851659 -59.9375 44.875 C-64.69013849 38.25010999 -64.8402001 30.89187948 -64 23 C-62.96935268 20.29212001 -62.0536297 19.11403057 -60 17 C-59.34 17 -58.68 17 -58 17 C-57.731875 17.94875 -57.46375 18.8975 -57.1875 19.875 C-56.25013412 23.25267273 -56.25013412 23.25267273 -53 25 C-48.42606445 25.4498953 -46.04147984 25.53136727 -41.9375 23.4375 C-39.02501423 21.02075649 -36.4318385 18.45098692 -33.7890625 15.75 C-30.16538849 12.20544551 -26.9920065 9.27888091 -21.875 8.5625 C-18.97093389 9.0044231 -16.7055376 9.89003586 -14 11 C-11.54367668 11.75021244 -11.54367668 11.75021244 -9 11 C-6.70830823 8.88236077 -4.86081261 6.49712496 -3 4 C-2.38125 3.195625 -1.7625 2.39125 -1.125 1.5625 C-0.75375 1.046875 -0.3825 0.53125 0 0 Z " fill="#F6EC6F" transform="translate(122,63)"/>
<path d="M0 0 C10.56 0 21.12 0 32 0 C31.9175 4.104375 31.835 8.20875 31.75 12.4375 C31.60845941 32.24723561 35.35543312 51.47028868 49.3125 66.48828125 C51.50953879 68.69588272 53.73757065 70.85974183 56 73 C56.99 73.99 56.99 73.99 58 75 C57.34064453 75.61294922 57.34064453 75.61294922 56.66796875 76.23828125 C54.90002875 78.10559024 53.64448292 79.99152816 52.3125 82.1875 C51.87550781 82.90292969 51.43851563 83.61835938 50.98828125 84.35546875 C50.66214844 84.89816406 50.33601563 85.44085938 50 86 C47.07841579 83.2732142 45.04395182 80.67061453 43.1171875 77.17578125 C42.59527832 76.23887451 42.07336914 75.30196777 41.53564453 74.33666992 C40.98763184 73.33869385 40.43961914 72.34071777 39.875 71.3125 C38.70429198 69.21028719 37.53240923 67.10872817 36.359375 65.0078125 C35.78509766 63.97688477 35.21082031 62.94595703 34.61914062 61.88378906 C32.50608323 58.12030385 30.32905021 54.39821059 28.125 50.6875 C21.88582029 40.15693123 15.79226881 29.54239393 9.68994141 18.93212891 C8.22016707 16.38200036 6.74335739 13.83621413 5.26171875 11.29296875 C4.88031738 10.63514404 4.49891602 9.97731934 4.10595703 9.29956055 C3.1472815 7.64621536 2.18513622 5.99488336 1.22265625 4.34375 C0 2 0 2 0 0 Z " fill="#3F96F9" transform="translate(19,147)"/>
<path d="M0 0 C4.8567119 2.31112497 9.4347012 4.90880029 13 9 C13.56120215 12.25052732 12.90800127 14.8659311 12 18 C11.7215625 19.5159375 11.7215625 19.5159375 11.4375 21.0625 C11.293125 21.701875 11.14875 22.34125 11 23 C10.34 23 9.68 23 9 23 C9 20.69 9 18.38 9 16 C2.97855483 18.51470316 -2.79252758 21.39616058 -8.59765625 24.37890625 C-16.4968675 28.14259473 -23.68213362 29.62778593 -32.203125 27.01953125 C-37.49232406 24.90254887 -41.57207958 22.58380181 -46 19 C-46.99 18.67 -47.98 18.34 -49 18 C-49.33 19.32 -49.66 20.64 -50 22 C-55 15.183391 -55 15.183391 -55 10.6875 C-54.00161074 8.00432888 -53.30969495 6.66298037 -51 5 C-50.34 5 -49.68 5 -49 5 C-48.79246094 5.62390625 -48.58492188 6.2478125 -48.37109375 6.890625 C-46.39951209 9.92382756 -44.54837102 10.00391583 -41.0625 10.75 C-27.30365497 13.46872375 -12.90375511 11.7064415 0 6 C0 4.02 0 2.04 0 0 Z " fill="#151414" transform="translate(119,169)"/>
<path d="M0 0 C2.3227588 2.3227588 3.1097217 4.37272385 4.4375 7.375 C10.79951561 20.26930415 22.30235456 31.25850735 36 36 C49.04582903 39.05327913 62.37181265 35.0894567 74 29 C77.57185936 26.57277082 80.79830838 23.89329751 84 21 C84.60199219 20.47921875 85.20398438 19.9584375 85.82421875 19.421875 C91.88625195 13.82615205 96.34260884 6.75649704 101 0 C101.99 0.495 101.99 0.495 103 1 C103 7.48563863 102.49990151 10.30142801 98.5 15.3125 C97.81333252 16.18189209 97.81333252 16.18189209 97.11279297 17.06884766 C86.11736069 30.71451996 70.35472691 39.31544068 53 42 C38.40098943 43.03913611 26.70564139 40.04678856 15 31 C-2.04924449 15.93375587 -2.04924449 15.93375587 -3 6 C-2.34 5.34 -1.68 4.68 -1 4 C-0.3574765 1.93125966 -0.3574765 1.93125966 0 0 Z " fill="#0D0C0A" transform="translate(60,190)"/>
<path d="M0 0 C1.7074998 1.28062485 3.37373596 2.61767557 5 4 C5 4.66 5 5.32 5 6 C11.73945957 6.70713777 11.73945957 6.70713777 18.06640625 4.88671875 C19.87737975 3.39205425 19.87737975 3.39205425 22 1 C22.66 1.33 23.32 1.66 24 2 C21.17387502 5.53265622 18.67980292 8.35514165 15 11 C10.52989891 14.92424716 8.26412457 18.86618787 5.875 24.1875 C5.52880615 24.94272949 5.1826123 25.69795898 4.82592773 26.47607422 C-3.28080768 44.48889666 -3.97063554 63.01886842 1 82 C1.33 82.66 1.66 83.32 2 84 C2.04022391 86.3329866 2.04320247 88.66706666 2 91 C0.02 91.99 0.02 91.99 -2 93 C-2.8175507 90.45986091 -3.62915186 87.91806769 -4.4375 85.375 C-4.66759766 84.66214844 -4.89769531 83.94929688 -5.13476562 83.21484375 C-10.17327776 67.29606629 -9.35137793 50.50227797 -4.19140625 34.75 C-2.08156267 28.91841004 -2.08156267 28.91841004 -2.77734375 23.015625 C-3.16019531 22.43296875 -3.54304688 21.8503125 -3.9375 21.25 C-6.54972123 16.57502476 -6.56874585 12.24924452 -6 7 C-4.77065985 3.31197956 -3.06140622 2.27643027 0 0 Z " fill="#090A0A" transform="translate(58,103)"/>
<path d="M0 0 C16.5 0 33 0 50 0 C44.21026654 8.10562685 44.21026654 8.10562685 41 9 C37.49999048 9.33313344 34.02113532 9.44097711 30.5078125 9.55859375 C24.22862739 10.3487362 20.63328125 12.91902748 16.625 17.6875 C15.93664062 18.49574219 15.24828125 19.30398437 14.5390625 20.13671875 C13.77722656 21.05904297 13.77722656 21.05904297 13 22 C10.71464143 19.86979193 9.10448528 17.7462071 7.51953125 15.05859375 C7.07802734 14.31029297 6.63652344 13.56199219 6.18164062 12.79101562 C5.72982422 12.01435547 5.27800781 11.23769531 4.8125 10.4375 C4.11737305 9.26670898 4.11737305 9.26670898 3.40820312 8.07226562 C0 2.25472892 0 2.25472892 0 0 Z " fill="#3F96F9" transform="translate(69,60)"/>
<path d="M0 0 C0 1.32 0 2.64 0 4 C-1.8306273 4.94277306 -3.66466193 5.87893076 -5.5 6.8125 C-6.5209375 7.33457031 -7.541875 7.85664063 -8.59375 8.39453125 C-18.91810661 13.26071309 -29.90722476 15.6007894 -41.22265625 12.36425781 C-45.46073628 10.75418348 -49.39879465 8.77710506 -53 6 C-53.8671875 3.765625 -53.8671875 3.765625 -54 2 C-47.34719335 2.93139293 -47.34719335 2.93139293 -44.390625 3.515625 C-33.05827578 5.13453203 -21.13914808 5.23998286 -10.46484375 0.890625 C-6.83730623 -0.42011756 -3.81415901 -0.29339685 0 0 Z " fill="#F3F4F3" transform="translate(124,179)"/>
<path d="M0 0 C17.16 0 34.32 0 52 0 C52 0.33 52 0.66 52 1 C35.17 1 18.34 1 1 1 C4.96 7.93 8.92 14.86 13 22 C13 22.66 13 23.32 13 24 C9.60268371 26.09065618 6.95730595 26.42098999 3 26 C1.0625 24.9375 1.0625 24.9375 0 23 C0.22410699 18.81666944 0.6614896 16.50776561 3 13 C2.34 13 1.68 13 1 13 C0.63447197 11.58622218 0.28304505 10.16879424 -0.0625 8.75 C-0.25972656 7.96109375 -0.45695312 7.1721875 -0.66015625 6.359375 C-1 4 -1 4 0 0 Z " fill="#E7E57E" transform="translate(68,59)"/>
<path d="M0 0 C0.20753906 0.62390625 0.41507812 1.2478125 0.62890625 1.890625 C2.60048791 4.92382756 4.45162898 5.00391583 7.9375 5.75 C22.13583918 8.55556702 34.23962705 5.44631922 48 2 C47.01799522 4.61136467 46.33276391 5.7977195 43.91796875 7.265625 C29.98953027 12.2870363 14.00240573 11.3643862 0 7 C1.51947499 10.36748512 2.52100842 11.60840337 6 13 C5.67 13.99 5.34 14.98 5 16 C3.35 15.01 1.7 14.02 0 13 C-0.33 14.32 -0.66 15.64 -1 17 C-6 10.183391 -6 10.183391 -6 5.6875 C-4.78417453 2.41996906 -3.74976045 0 0 0 Z " fill="#151413" transform="translate(70,174)"/>
<path d="M0 0 C-0.33 0.721875 -0.66 1.44375 -1 2.1875 C-2.04678751 5.13158986 -2.47440644 6.91635814 -2 10 C-0.10415891 12.31377147 -0.10415891 12.31377147 2 14 C1.67 14.66 1.34 15.32 1 16 C2.65 16 4.3 16 6 16 C6 16.33 6 16.66 6 17 C-1.1394958 17.48403361 -1.1394958 17.48403361 -5 15.3125 C-7 13 -7 13 -7.3125 10.25 C-7.1578125 9.13625 -7.1578125 9.13625 -7 8 C-7.66 8 -8.32 8 -9 8 C-9.309375 8.61875 -9.61875 9.2375 -9.9375 9.875 C-10.625 11.25 -11.3125 12.625 -12 14 C-12.09751547 16.10231877 -12.12976687 18.20792623 -12.125 20.3125 C-12.12757812 21.44300781 -12.13015625 22.57351562 -12.1328125 23.73828125 C-12.01541051 26.62153596 -11.66212988 29.1990855 -11 32 C-13 33 -15 34 -17 35 C-16.7215625 33.576875 -16.7215625 33.576875 -16.4375 32.125 C-15.71313368 29.10131207 -15.71313368 29.10131207 -17 27 C-17.69408155 19.99969184 -18.02270237 13.5575009 -13.69921875 7.72265625 C-9.93766401 3.90921799 -5.50777627 0 0 0 Z " fill="#1A180C" transform="translate(71,72)"/>
<path d="M0 0 C0.66 0 1.32 0 2 0 C1.44936961 4.92550202 -0.16198475 8.84501978 -2.4375 13.1875 C-2.75009766 13.80302734 -3.06269531 14.41855469 -3.38476562 15.05273438 C-4.80061556 17.81558743 -6.27593765 20.41390648 -8 23 C-7.7642666 26.06453425 -7.2510722 27.67167482 -5.375 30.125 C-4.92125 30.74375 -4.4675 31.3625 -4 32 C-4.33 32.99 -4.66 33.98 -5 35 C-7.2890625 35.26171875 -7.2890625 35.26171875 -10 35 C-11.8359375 33.20703125 -11.8359375 33.20703125 -13.375 30.8125 C-13.89835937 30.03519531 -14.42171875 29.25789063 -14.9609375 28.45703125 C-16.2530505 25.40162118 -16.12535339 24.09965759 -15 21 C-13.3984375 18.96484375 -13.3984375 18.96484375 -11.375 16.9375 C-7.18028817 12.47118812 -4.33451758 7.69057809 -1.4453125 2.30859375 C-0.96835938 1.54675781 -0.49140625 0.78492188 0 0 Z " fill="#0F0D0C" transform="translate(100,134)"/>
<path d="M0 0 C9.24 0 18.48 0 28 0 C25.75 6.75 25.75 6.75 22 10 C21.071875 9.54625 20.14375 9.0925 19.1875 8.625 C15.08090393 6.81474541 10.98769664 6.3098166 6.55078125 5.8203125 C4 5 4 5 0 0 Z " fill="#3F95F6" transform="translate(140,60)"/>
<path d="M0 0 C4.8567119 2.31112497 9.4347012 4.90880029 13 9 C13.56120215 12.25052732 12.90800127 14.8659311 12 18 C11.814375 19.010625 11.62875 20.02125 11.4375 21.0625 C11.293125 21.701875 11.14875 22.34125 11 23 C10.34 23 9.68 23 9 23 C9 20.69 9 18.38 9 16 C7.35 16 5.7 16 4 16 C4.33 14.35 4.66 12.7 5 11 C2.69 10.67 0.38 10.34 -2 10 C-1.67 9.46375 -1.34 8.9275 -1 8.375 C0.22699204 5.4608939 0.14233286 3.13132292 0 0 Z " fill="#0F0E0D" transform="translate(119,169)"/>
<path d="M0 0 C3.25 2.0625 3.25 2.0625 5 5 C5.3125 8.8125 5.3125 8.8125 5 12 C1.04383542 12 -1.00327445 10.49985539 -4.4375 8.5625 C-9.47584818 5.64690731 -9.47584818 5.64690731 -15 4 C-14.67 3.01 -14.34 2.02 -14 1 C-9.79622018 -1.10188991 -4.56713007 -0.52908165 0 0 Z " fill="#0E0D0C" transform="translate(131,136)"/>
<path d="M0 0 C0.99 0.66 1.98 1.32 3 2 C2.74089844 2.5671875 2.48179687 3.134375 2.21484375 3.71875 C2.14394531 4.4715625 2.07304687 5.224375 2 6 C3.91000501 8.29039973 3.91000501 8.29039973 6.5625 10.5 C12.0659016 15.68604652 15.07805898 21.08711516 18 28 C17.01 28.33 16.02 28.66 15 29 C14.67 29.66 14.34 30.32 14 31 C13.814375 29.88625 13.62875 28.7725 13.4375 27.625 C11.04833655 18.31550105 4.95005453 12.33036095 -3.05859375 7.47265625 C-4.01958984 6.74369141 -4.01958984 6.74369141 -5 6 C-5 5.01 -5 4.02 -5 3 C-2.5 1.3125 -2.5 1.3125 0 0 Z " fill="#120F0C" transform="translate(165,120)"/>
<path d="M0 0 C3.875 0.875 3.875 0.875 5 2 C5.58285311 7.42501744 5.44991232 11.54386325 2 16 C0.0625 15.625 0.0625 15.625 -2 15 C-3.71535658 11.56928684 -3.4006478 7.75941181 -3 4 C-1.5 1.4375 -1.5 1.4375 0 0 Z " fill="#0D0C0A" transform="translate(75,132)"/>
<path d="M0 0 C-0.33 0.721875 -0.66 1.44375 -1 2.1875 C-2.04678751 5.13158986 -2.47440644 6.91635814 -2 10 C-0.10415891 12.31377147 -0.10415891 12.31377147 2 14 C1.67 14.66 1.34 15.32 1 16 C2.65 16 4.3 16 6 16 C6 16.33 6 16.66 6 17 C-1.1394958 17.48403361 -1.1394958 17.48403361 -5 15.3125 C-7 13 -7 13 -7.3125 10.25 C-7.209375 9.5075 -7.10625 8.765 -7 8 C-7.99 8.33 -8.98 8.66 -10 9 C-10.33 8.34 -10.66 7.68 -11 7 C-4.18421053 0 -4.18421053 0 0 0 Z " fill="#15130A" transform="translate(71,72)"/>
<path d="M0 0 C3.35595828 0.59927826 5.37801226 1.84622436 8 4 C6.43358249 8.30764815 4.31663844 12.06171464 2 16 C0 15 0 15 -1.125 12.875 C-2.17761372 9.41641205 -2.26655394 6.59847818 -2 3 C-1.34 2.01 -0.68 1.02 0 0 Z " fill="#ECE66B" transform="translate(58,109)"/>
<path d="M0 0 C4.87787634 2.83483795 8.20608359 8.90340702 9.94921875 14.1328125 C8.95921875 14.4628125 7.96921875 14.7928125 6.94921875 15.1328125 C6.61921875 13.1528125 6.28921875 11.1728125 5.94921875 9.1328125 C5.28921875 9.1328125 4.62921875 9.1328125 3.94921875 9.1328125 C3.94921875 10.1228125 3.94921875 11.1128125 3.94921875 12.1328125 C3.28921875 12.1328125 2.62921875 12.1328125 1.94921875 12.1328125 C0.546875 10.671875 0.546875 10.671875 -0.98828125 8.7578125 C-2.97064742 6.29379726 -4.3577778 4.92814813 -7.05078125 3.1328125 C-7.05078125 2.1428125 -7.05078125 1.1528125 -7.05078125 0.1328125 C-4.46400795 -1.16057415 -2.72377862 -0.81085234 0 0 Z " fill="#EAD2B6" transform="translate(167.05078125,147.8671875)"/>
<path d="M0 0 C6.64874554 2.27850268 10.60387223 8.38766252 13.9296875 14.234375 C15.45149135 17.49905556 15.93022006 20.13334264 16.0859375 23.71484375 C15.4259375 23.71484375 14.7659375 23.71484375 14.0859375 23.71484375 C13.70115234 22.80605469 13.70115234 22.80605469 13.30859375 21.87890625 C9.4029265 13.33114964 3.81061901 6.16240826 -3.9140625 0.71484375 C-1.9140625 -0.28515625 -1.9140625 -0.28515625 0 0 Z " fill="#D4BEA5" transform="translate(163.9140625,128.28515625)"/>
<path d="M0 0 C0 3 0 3 -2.0625 5.8125 C-4.33889706 8.86199147 -4.33889706 8.86199147 -3.75 12.375 C-3.5025 13.24125 -3.255 14.1075 -3 15 C-8.445 16.485 -8.445 16.485 -14 18 C-13.34 16.68 -12.68 15.36 -12 14 C-12.66 13.34 -13.32 12.68 -14 12 C-12.17521365 9.97245961 -10.43223586 8.62971904 -8.125 7.125 C-5.01816376 5.01235135 -2.57333286 2.72470538 0 0 Z " fill="#E4DAC6" transform="translate(86,103)"/>
<path d="M0 0 C1.15299939 1.15299939 2.30431029 2.30771607 3.44921875 3.46875 C4.48880962 4.49524779 5.55487303 5.49556356 6.64453125 6.46875 C11.9994091 11.40055624 16.12541631 17.29579 19 24 C18.6875 26.36328125 18.6875 26.36328125 18 28 C17.57589844 27.20335937 17.15179688 26.40671875 16.71484375 25.5859375 C13.55845067 19.88361858 10.77749139 15.20990915 5.57421875 11.234375 C2.30511041 8.67100469 0.30093737 5.90281212 -1 2 C-0.67 1.34 -0.34 0.68 0 0 Z " fill="#E4CBAF" transform="translate(159,130)"/>
<path d="M0 0 C2.46800047 1.15173355 4.04783565 2.04783565 6 4 C7.32 3.34 8.64 2.68 10 2 C10.66 3.98 11.32 5.96 12 8 C8.60268371 10.09065618 5.95730595 10.42098999 2 10 C0.0625 8.9375 0.0625 8.9375 -1 7 C-0.6875 3.3125 -0.6875 3.3125 0 0 Z " fill="#F9EE70" transform="translate(69,75)"/>
<path d="M0 0 C6.12189725 0.96805057 10.05199021 6.39310454 13.59375 11.1328125 C15.90396233 14.66528833 17.59793443 17.71130062 18 22 C18.66 22 19.32 22 20 22 C20 22.66 20 23.32 20 24 C19.01 24 18.02 24 17 24 C15.52734375 21.7265625 15.52734375 21.7265625 13.9375 18.625 C10.68777058 12.73922397 6.86694722 8.4974268 1.94140625 3.9609375 C0 2 0 2 0 0 Z " fill="#110E0C" transform="translate(160,130)"/>
<path d="M0 0 C5.82955279 1.13281703 9.50426486 4.80385497 12.78515625 9.62109375 C14.24534092 12.05473487 15.65250419 14.50244366 17 17 C16.01 17.66 15.02 18.32 14 19 C13.6596875 18.43152344 13.319375 17.86304688 12.96875 17.27734375 C9.71235009 12.08962155 6.3847508 8.26458208 1.5390625 4.5078125 C1.03117188 4.01023438 0.52328125 3.51265625 0 3 C0 2.01 0 1.02 0 0 Z " fill="#201C18" transform="translate(160,139)"/>
<path d="M0 0 C0.99 1.485 0.99 1.485 2 3 C2.66 2.67 3.32 2.34 4 2 C4.12117188 2.59167969 4.24234375 3.18335937 4.3671875 3.79296875 C5.43743937 8.88671709 5.43743937 8.88671709 7.25 13.75 C8 16 8 16 7.125 18.8125 C6.75375 19.534375 6.3825 20.25625 6 21 C1.21481385 13.82222077 -0.64496787 8.74289784 0 0 Z " fill="#19170B" transform="translate(52,110)"/>
<path d="M0 0 C2.125 0 2.125 0 5 1 C8.39246277 4.54666562 11.07872717 8.1194475 12 13 C8.09120039 11.34627709 5.23788375 8.69823646 2 6 C-0.21587348 4.72147713 -0.21587348 4.72147713 -2 4 C-1.34 2.68 -0.68 1.36 0 0 Z " fill="#1D1A17" transform="translate(127,114)"/>
<path d="M0 0 C0.33 0.99 0.66 1.98 1 3 C-0.62192821 4.64886059 -2.24763772 6.2940024 -3.875 7.9375 C-4.77992187 8.85402344 -5.68484375 9.77054688 -6.6171875 10.71484375 C-10.44727479 14.38796025 -12.77940352 14.09667771 -18 14 C-17.67 13.01 -17.34 12.02 -17 11 C-14.9609375 10.078125 -14.9609375 10.078125 -12.375 9.25 C-6.95467821 7.25631842 -3.6973073 4.35841523 0 0 Z " fill="#070604" transform="translate(90,74)"/>
<path d="M0 0 C0.33 1.32 0.66 2.64 1 4 C-2.18774083 5.59387042 -5.53927959 5.52663137 -9 5 C-11.5 3 -11.5 3 -13 1 C-8.60563789 0.14256349 -4.47427924 -0.08948558 0 0 Z " fill="#0E0C0A" transform="translate(99,200)"/>
<path d="M0 0 C-2.41784269 3.62676404 -3.80939007 3.91799088 -7.875 5.25 C-9.44894531 5.78367188 -9.44894531 5.78367188 -11.0546875 6.328125 C-13.92325141 6.98249236 -15.2935176 7.01983395 -18 6 C-17.01 6 -16.02 6 -15 6 C-15.33 5.01 -15.66 4.02 -16 3 C-13.71068726 2.30364247 -11.4191243 1.61765623 -9.125 0.9375 C-8.47402344 0.73833984 -7.82304688 0.53917969 -7.15234375 0.33398438 C-2.2265625 -1.11328125 -2.2265625 -1.11328125 0 0 Z " fill="#312F2D" transform="translate(118,177)"/>
<path d="M0 0 C3.10000819 1.06478542 3.97462191 1.95797481 5.703125 4.8203125 C6.21359375 5.91085938 6.7240625 7.00140625 7.25 8.125 C8.03117188 9.76855469 8.03117188 9.76855469 8.828125 11.4453125 C9.40820312 12.70988281 9.40820312 12.70988281 10 14 C9.01 14.33 8.02 14.66 7 15 C6.67 15.66 6.34 16.32 6 17 C5.7525 15.80375 5.505 14.6075 5.25 13.375 C4.25379199 9.29632229 2.40447052 6.44640775 0 3 C0 2.01 0 1.02 0 0 Z " fill="#222011" transform="translate(173,134)"/>
<path d="M0 0 C1.64826111 2.96687001 2.44271087 5.65626525 3 9 C2.34 9 1.68 9 1 9 C0.67 8.34 0.34 7.68 0 7 C-0.99 7.99 -1.98 8.98 -3 10 C-3.99 9.01 -4.98 8.02 -6 7 C-5.34 5.68 -4.68 4.36 -4 3 C-3.34 3 -2.68 3 -2 3 C-1.67 2.34 -1.34 1.68 -1 1 C-0.67 0.67 -0.34 0.34 0 0 Z " fill="#3D97FB" transform="translate(52,184)"/>
<path d="M0 0 C0.66 0.33 1.32 0.66 2 1 C-3.42465753 7.78082192 -3.42465753 7.78082192 -7 10 C-7.66 10 -8.32 10 -9 10 C-9 9.01 -9 8.02 -9 7 C-10.65 7 -12.3 7 -14 7 C-14 7.66 -14 8.32 -14 9 C-14.99 8.67 -15.98 8.34 -17 8 C-17 7.01 -17 6.02 -17 5 C-16.27554688 5.05800781 -15.55109375 5.11601563 -14.8046875 5.17578125 C-8.05096256 5.60308871 -8.05096256 5.60308871 -2.3125 2.5 C-1.549375 1.675 -0.78625 0.85 0 0 Z " fill="#2E2C17" transform="translate(80,104)"/>
<path d="M0 0 C2.56695636 0.39491636 4.67123994 0.83561997 7 2 C6.34 3.65 5.68 5.3 5 7 C3.68 6.67 2.36 6.34 1 6 C1 6.66 1 7.32 1 8 C0.34 8 -0.32 8 -1 8 C-1.04241723 5.66705225 -1.04092937 3.33297433 -1 1 C-0.67 0.67 -0.34 0.34 0 0 Z " fill="#F6ED70" transform="translate(59,111)"/>
<path d="M0 0 C2.65204896 0.36834013 3.73840056 0.6867691 5.484375 2.77734375 C5.90203125 3.49019531 6.3196875 4.20304687 6.75 4.9375 C7.17796875 5.64777344 7.6059375 6.35804687 8.046875 7.08984375 C9 9 9 9 9 11 C8.01 11.33 7.02 11.66 6 12 C5.66226563 11.43410156 5.32453125 10.86820313 4.9765625 10.28515625 C4.53054687 9.55167969 4.08453125 8.81820312 3.625 8.0625 C2.96371094 6.96615234 2.96371094 6.96615234 2.2890625 5.84765625 C1.1226016 3.86227728 1.1226016 3.86227728 -1 3 C-0.67 2.01 -0.34 1.02 0 0 Z " fill="#1A180A" transform="translate(161,72)"/>
<path d="M0 0 C3.47339053 0.56508523 4.95006976 1.62643336 7.1875 4.3125 C7.95126953 5.20388672 7.95126953 5.20388672 8.73046875 6.11328125 C10.0611766 8.09091784 10.57327387 9.67100075 11 12 C10.34 12 9.68 12 9 12 C7.59765625 10.5390625 7.59765625 10.5390625 6.0625 8.625 C4.08013383 6.16098476 2.69300345 4.79533563 0 3 C0 2.01 0 1.02 0 0 Z " fill="#1E1915" transform="translate(160,148)"/>
<path d="M0 0 C0.33 0 0.66 0 1 0 C1.66 4.95 2.32 9.9 3 15 C1 16 -1 17 -3 18 C-2.7215625 16.63875 -2.7215625 16.63875 -2.4375 15.25 C-2.04265379 12.31685676 -2.05308428 10.7355343 -3 8 C-2.34 7.67 -1.68 7.34 -1 7 C-0.59270772 4.67843403 -0.25561323 2.3431213 0 0 Z " fill="#201D0E" transform="translate(57,89)"/>
<path d="M0 0 C1.65 0 3.3 0 5 0 C4.63287028 2.71675995 4.27255401 4.61063713 2.6875 6.875 C1 8 1 8 -1.1875 7.6875 C-1.785625 7.460625 -2.38375 7.23375 -3 7 C-2.01 4.69 -1.02 2.38 0 0 Z " fill="#13120D" transform="translate(66,111)"/>
<path d="M0 0 C0.33 0.66 0.66 1.32 1 2 C1.99 2.33 2.98 2.66 4 3 C3.01 3 2.02 3 1 3 C1 3.66 1 4.32 1 5 C-0.32 5.33 -1.64 5.66 -3 6 C-3.33 7.32 -3.66 8.64 -4 10 C-5.32 9.34 -6.64 8.68 -8 8 C-6.37660195 6.29115995 -4.70680947 4.62553283 -3 3 C-2.34 3 -1.68 3 -1 3 C-0.67 2.01 -0.34 1.02 0 0 Z " fill="#4A9CF0" transform="translate(195,221)"/>
<path d="M0 0 C0.33 1.32 0.66 2.64 1 4 C-4.445 5.485 -4.445 5.485 -10 7 C-7.61901821 2.23803643 -5.46664876 0 0 0 Z " fill="#1B1815" transform="translate(82,114)"/>
<path d="M0 0 C2.74277578 3.19990508 4.6302836 6.00499382 6 10 C4.68 10.33 3.36 10.66 2 11 C-0.67927341 6.98108988 -0.15601248 4.75838077 0 0 Z " fill="#ECEA78" transform="translate(156,212)"/>
<path d="M0 0 C3.96 1.98 3.96 1.98 8 4 C6.35 5.32 4.7 6.64 3 8 C3 7.34 3 6.68 3 6 C2.01 6.33 1.02 6.66 0 7 C-0.38133299 5.0085944 -0.71325582 3.00720923 -1 1 C-0.67 0.67 -0.34 0.34 0 0 Z " fill="#F2EB77" transform="translate(170,53)"/>
<path d="M0 0 C4.455 1.98 4.455 1.98 9 4 C8.67 4.99 8.34 5.98 8 7 C4.17902761 6.46930939 1.93828597 5.50298434 -1 3 C-0.67 2.01 -0.34 1.02 0 0 Z " fill="#17140F" transform="translate(100,92)"/>
<path d="M0 0 C0.66 0.33 1.32 0.66 2 1 C2.73075648 3.3140622 3.40138258 5.64828869 4 8 C4.99 7.67 5.98 7.34 7 7 C7.33 7.99 7.66 8.98 8 10 C7.67 10.66 7.34 11.32 7 12 C4 11 4 11 2.61328125 8.71484375 C2.18402344 7.79832031 1.75476563 6.88179687 1.3125 5.9375 C0.87550781 5.01839844 0.43851563 4.09929687 -0.01171875 3.15234375 C-0.50091797 2.08693359 -0.50091797 2.08693359 -1 1 C-0.67 0.67 -0.34 0.34 0 0 Z " fill="#4B9BF1" transform="translate(163,221)"/>
<path d="M0 0 C0.33 0.66 0.66 1.32 1 2 C1.66 2.33 2.32 2.66 3 3 C2.34 4.98 1.68 6.96 1 9 C0.67 8.34 0.34 7.68 0 7 C-1.65 7.33 -3.3 7.66 -5 8 C-3.35 5.36 -1.7 2.72 0 0 Z " fill="#3D91EE" transform="translate(165,195)"/>
<path d="M0 0 C0.99 0 1.98 0 3 0 C5.12046792 3.53411321 5.53199289 6.94393835 6 11 C5.34 11 4.68 11 4 11 C3.32591692 9.73308493 2.66099503 8.46129251 2 7.1875 C1.62875 6.47980469 1.2575 5.77210938 0.875 5.04296875 C0 3 0 3 0 0 Z " fill="#D2BDA3" transform="translate(174,141)"/>
<path d="M0 0 C3 3.75 3 3.75 3 6 C-0.4019487 8.09350689 -3.05272412 8.17942163 -7 8 C-7 7.34 -7 6.68 -7 6 C-3.535 5.505 -3.535 5.505 0 5 C-0.66 4.34 -1.32 3.68 -2 3 C-1.34 2.01 -0.68 1.02 0 0 Z " fill="#DAD66B" transform="translate(78,77)"/>
<path d="M0 0 C0.66 0 1.32 0 2 0 C2.86916887 1.40751221 3.71985149 2.8264521 4.5625 4.25 C5.03816406 5.03890625 5.51382813 5.8278125 6.00390625 6.640625 C7.13022151 9.30844625 7.0169313 10.34501768 6 13 C4.99193149 11.40089132 3.99379615 9.79551738 3 8.1875 C2.443125 7.29417969 1.88625 6.40085938 1.3125 5.48046875 C0 3 0 3 0 0 Z " fill="#D7C4A8" transform="translate(171,145)"/>
<path d="M0 0 C0.99 0.33 1.98 0.66 3 1 C3 1.66 3 2.32 3 3 C2.34 3 1.68 3 1 3 C0.938125 3.598125 0.87625 4.19625 0.8125 4.8125 C-0.3236757 7.87143458 -2.17330142 8.55041099 -5 10 C-3.66511872 6.40608886 -2.03977277 3.24509304 0 0 Z " fill="#EFEA76" transform="translate(28,89)"/>
<path d="M0 0 C0 2.97 0 5.94 0 9 C-0.99 9.33 -1.98 9.66 -3 10 C-3 7.03 -3 4.06 -3 1 C-1 0 -1 0 0 0 Z " fill="#030203" transform="translate(57,87)"/>
<path d="M0 0 C1 4 1 4 1 6 C-1.875 6.625 -1.875 6.625 -5 7 C-5.66 6.34 -6.32 5.68 -7 5 C-4.69 3.35 -2.38 1.7 0 0 Z " fill="#ECE46B" transform="translate(147,216)"/>
<path d="M0 0 C0.66 0.66 1.32 1.32 2 2 C2.99 1.34 3.98 0.68 5 0 C4.67 1.98 4.34 3.96 4 6 C2.68 6 1.36 6 0 6 C-0.33 6.66 -0.66 7.32 -1 8 C-0.67 5.36 -0.34 2.72 0 0 Z " fill="#E4D5C3" transform="translate(131,183)"/>
<path d="M0 0 C1.53846154 4.61538462 1.53846154 4.61538462 2 7 C1.67 7.66 1.34 8.32 1 9 C-1.5625 9.625 -1.5625 9.625 -4 10 C-2.8905928 6.51329166 -1.73662334 3.22515763 0 0 Z " fill="#EFE1CD" transform="translate(67,119)"/>
<path d="M0 0 C2.46800047 1.15173355 4.04783565 2.04783565 6 4 C6 5.32 6 6.64 6 8 C2.57701423 6.85900474 1.85241234 5.99914379 0 3 C0 2.01 0 1.02 0 0 Z " fill="#201B16" transform="translate(160,157)"/>
<path d="M0 0 C0.66 0.33 1.32 0.66 2 1 C2 1.66 2 2.32 2 3 C3.65 3.33 5.3 3.66 7 4 C6.01 5.485 6.01 5.485 5 7 C2.11562221 5.70700306 0.12780579 4.34058637 -2 2 C-1.34 2 -0.68 2 0 2 C0 1.34 0 0.68 0 0 Z " fill="#E1C9AD" transform="translate(162,154)"/>
<path d="M0 0 C0.99 0.33 1.98 0.66 3 1 C4.1875 4.5625 4.1875 4.5625 5 8 C5.66 8 6.32 8 7 8 C7 8.66 7 9.32 7 10 C6.01 10 5.02 10 4 10 C0 3.375 0 3.375 0 0 Z " fill="#25201C" transform="translate(173,144)"/>
<path d="M0 0 C0.66 0 1.32 0 2 0 C5.07692308 5.41538462 5.07692308 5.41538462 4.6875 8.375 C4.460625 8.91125 4.23375 9.4475 4 10 C4 9.01 4 8.02 4 7 C3.360625 6.896875 2.72125 6.79375 2.0625 6.6875 C1.381875 6.460625 0.70125 6.23375 0 6 C-1 3 -1 3 0 0 Z " fill="#E8E16A" transform="translate(52,122)"/>
<path d="M0 0 C0 0.66 0 1.32 0 2 C2.31 2.66 4.62 3.32 7 4 C6.67 4.99 6.34 5.98 6 7 C2.00499382 5.6302836 -0.80009492 3.74277578 -4 1 C-2 0 -2 0 0 0 Z " fill="#E7E87A" transform="translate(62,234)"/>
<path d="M0 0 C3.04049801 3.64859761 4.96518762 7.7444533 7 12 C6.34 12 5.68 12 5 12 C5 11.34 5 10.68 5 10 C4.01 9.67 3.02 9.34 2 9 C2 7.68 2 6.36 2 5 C1.01 5 0.02 5 -1 5 C-0.67 3.35 -0.34 1.7 0 0 Z " fill="#E7E87B" transform="translate(55,211)"/>
<path d="M0 0 C1.32 0.33 2.64 0.66 4 1 C3.01 1.66 2.02 2.32 1 3 C0.26393501 6.56769552 0.26393501 6.56769552 0 10 C-0.66 10 -1.32 10 -2 10 C-2.25 3.375 -2.25 3.375 0 0 Z " fill="#CFCB5F" transform="translate(58,109)"/>
<path d="M0 0 C3.1875 -0.25 3.1875 -0.25 6 0 C6.33 0.99 6.66 1.98 7 3 C3.7 3.33 0.4 3.66 -3 4 C-2.01 2.68 -1.02 1.36 0 0 Z " fill="#060504" transform="translate(94,92)"/>
<path d="M0 0 C0.99 0.33 1.98 0.66 3 1 C2.2884375 1.928125 2.2884375 1.928125 1.5625 2.875 C-0.02417441 4.90705546 -0.02417441 4.90705546 -1 7 C-1.66 7 -2.32 7 -3 7 C-3 7.66 -3 8.32 -3 9 C-3.99 8.67 -4.98 8.34 -6 8 C-4.02 5.36 -2.04 2.72 0 0 Z " fill="#E6E879" transform="translate(35,79)"/>
<path d="M0 0 C0.66 0 1.32 0 2 0 C2 0.66 2 1.32 2 2 C2.66 2 3.32 2 4 2 C4.33 1.34 4.66 0.68 5 0 C5 0.99 5 1.98 5 3 C5.99 2.67 6.98 2.34 8 2 C8 2.99 8 3.98 8 5 C2.46153846 4.38461538 2.46153846 4.38461538 0.125 2.4375 C-0.24625 1.963125 -0.6175 1.48875 -1 1 C-0.67 0.67 -0.34 0.34 0 0 Z " fill="#E7E169" transform="translate(102,91)"/>
<path d="M0 0 C0.90105469 0.19464844 1.80210937 0.38929687 2.73046875 0.58984375 C3.41753906 0.74582031 4.10460937 0.90179688 4.8125 1.0625 C4.8125 1.3925 4.8125 1.7225 4.8125 2.0625 C-1.1275 2.5575 -1.1275 2.5575 -7.1875 3.0625 C-7.5175 2.0725 -7.8475 1.0825 -8.1875 0.0625 C-4.80475734 -1.06508089 -3.41971777 -0.75500262 0 0 Z " fill="#2A261B" transform="translate(157.1875,101.9375)"/>
<path d="M0 0 C1.32 0.66 2.64 1.32 4 2 C3.67 3.32 3.34 4.64 3 6 C1.68 5.67 0.36 5.34 -1 5 C-0.67 3.35 -0.34 1.7 0 0 Z " fill="#EDE46B" transform="translate(69,75)"/>
<path d="M0 0 C0.8125 1.625 0.8125 1.625 1 4 C-0.46818136 6.24609835 -2.15852858 8.02378677 -4 10 C-4.33 8.68 -4.66 7.36 -5 6 C-4.01 5.67 -3.02 5.34 -2 5 C-0.78130071 2.49552484 -0.78130071 2.49552484 0 0 Z " fill="#3D90EC" transform="translate(86,72)"/>
<path d="M0 0 C2.52588702 2.36292656 3.88820837 3.66462511 5 7 C3.68 6.67 2.36 6.34 1 6 C1 5.34 1 4.68 1 4 C0.34 4 -0.32 4 -1 4 C-0.67 2.68 -0.34 1.36 0 0 Z " fill="#EFEB77" transform="translate(50,204)"/>
<path d="M0 0 C1.64826111 2.96687001 2.44271087 5.65626525 3 9 C2.34 9 1.68 9 1 9 C-0.6875 6.6875 -0.6875 6.6875 -2 4 C-1 1 -1 1 0 0 Z " fill="#3988E0" transform="translate(52,184)"/>
<path d="M0 0 C-2 3 -2 3 -4.625 3.6875 C-5.800625 3.8421875 -5.800625 3.8421875 -7 4 C-7 3.34 -7 2.68 -7 2 C-7.66 1.67 -8.32 1.34 -9 1 C-2.25 -1.125 -2.25 -1.125 0 0 Z " fill="#242220" transform="translate(118,177)"/>
<path d="M0 0 C1.89213369 2.38573379 3.02391783 4.07175348 4 7 C3.34 7 2.68 7 2 7 C1.67 7.99 1.34 8.98 1 10 C0.22157062 6.59437148 -0.09978121 3.49234244 0 0 Z " fill="#ECE979" transform="translate(211,93)"/>
<path d="M0 0 C3.68754757 0.49831724 5.60490662 1.10067643 8 4 C6 5 6 5 3 5 C2.87625 4.360625 2.7525 3.72125 2.625 3.0625 C2.315625 2.0415625 2.315625 2.0415625 2 1 C1.34 0.67 0.68 0.34 0 0 Z " fill="#4599F4" transform="translate(49,231)"/>
<path d="M0 0 C0.99 0.33 1.98 0.66 3 1 C2.505 1.4125 2.01 1.825 1.5 2.25 C-0.43386092 4.12202338 -0.43386092 4.12202338 0 8 C-1.32 8 -2.64 8 -4 8 C-2.87548273 5.0280615 -1.77706209 2.66559313 0 0 Z " fill="#EAE775" transform="translate(75,222)"/>
<path d="M0 0 C1.65 0.33 3.3 0.66 5 1 C3.02 3.97 3.02 3.97 1 7 C-0.0625 5.1875 -0.0625 5.1875 -1 3 C-0.67 2.01 -0.34 1.02 0 0 Z " fill="#4C99E7" transform="translate(72,220)"/>
<path d="M0 0 C2.31 0 4.62 0 7 0 C7.33 1.32 7.66 2.64 8 4 C6.68 4 5.36 4 4 4 C4 3.01 4 2.02 4 1 C2.68 0.67 1.36 0.34 0 0 Z " fill="#36322E" transform="translate(92,200)"/>
<path d="M0 0 C1.98 0.99 3.96 1.98 6 3 C6 3.66 6 4.32 6 5 C3.69 5 1.38 5 -1 5 C-0.67 3.35 -0.34 1.7 0 0 Z " fill="#F6DDBF" transform="translate(162,184)"/>
<path d="M0 0 C2.25245881 2.68841859 3.88213958 4.64641875 5 8 C4.01 8.33 3.02 8.66 2 9 C1.67 7.02 1.34 5.04 1 3 C0.01 3.33 -0.98 3.66 -2 4 C-2 3.34 -2 2.68 -2 2 C-1.34 2 -0.68 2 0 2 C0 1.34 0 0.68 0 0 Z " fill="#DCC6AA" transform="translate(172,154)"/>
<path d="M0 0 C1.875 0.25 1.875 0.25 4 1 C5.25 3.0625 5.25 3.0625 6 5 C5.01 5.33 4.02 5.66 3 6 C0 2.25 0 2.25 0 0 Z " fill="#EAD3B5" transform="translate(170,136)"/>
<path d="M0 0 C0.33 0 0.66 0 1 0 C1 3.3 1 6.6 1 10 C0.34 10 -0.32 10 -1 10 C-1.33 10.66 -1.66 11.32 -2 12 C-2.33 10.68 -2.66 9.36 -3 8 C-2.34 7.67 -1.68 7.34 -1 7 C-0.59270772 4.67843403 -0.25561323 2.3431213 0 0 Z " fill="#3F3B1B" transform="translate(57,89)"/>
<path d="M0 0 C0.66 0 1.32 0 2 0 C1.67 1.98 1.34 3.96 1 6 C-0.32 6 -1.64 6 -3 6 C-2 4 -1 2 0 0 Z " fill="#D7D161" transform="translate(62,80)"/>
<path d="M0 0 C0 0.33 0 0.66 0 1 C-1.57925975 1.39180108 -3.16368794 1.76280736 -4.75 2.125 C-5.63171875 2.33382812 -6.5134375 2.54265625 -7.421875 2.7578125 C-10.32875493 3.03088304 -11.56661348 2.53508028 -14 1 C-9.23692563 0.04738513 -4.8333472 -0.08333357 0 0 Z " fill="#D1DC8D" transform="translate(112,40)"/>
<path d="M0 0 C0.33 0 0.66 0 1 0 C1.20086443 3.71599191 1.1519437 4.77208445 -1 8 C-1.99 7.67 -2.98 7.34 -4 7 C-2.68 4.69 -1.36 2.38 0 0 Z " fill="#EAE979" transform="translate(177,219)"/>
<path d="M0 0 C0.99 1.32 1.98 2.64 3 4 C2.01 4.66 1.02 5.32 0 6 C-0.99 5.34 -1.98 4.68 -3 4 C-2.01 2.68 -1.02 1.36 0 0 Z " fill="#ECEA78" transform="translate(22,154)"/>
<path d="M0 0 C0.66 0 1.32 0 2 0 C2.33 2.64 2.66 5.28 3 8 C2.34 8 1.68 8 1 8 C-0.35439668 5.29120665 -0.06501451 2.99066732 0 0 Z " fill="#E8E67C" transform="translate(220,116)"/>
<path d="M0 0 C0.33 0.99 0.66 1.98 1 3 C-0.32 4.32 -1.64 5.64 -3 7 C-3.99 6.67 -4.98 6.34 -6 6 C-4.02 4.02 -2.04 2.04 0 0 Z " fill="#060406" transform="translate(82,104)"/>
<path d="M0 0 C0.99 0.33 1.98 0.66 3 1 C3.33 3.31 3.66 5.62 4 8 C0 3.375 0 3.375 0 0 Z " fill="#4699F2" transform="translate(50,200)"/>
<path d="M0 0 C0.33 1.32 0.66 2.64 1 4 C0.01 4.33 -0.98 4.66 -2 5 C-2.66 5.66 -3.32 6.32 -4 7 C-4.33 5.68 -4.66 4.36 -5 3 C-4.01 3 -3.02 3 -2 3 C-1.67 2.34 -1.34 1.68 -1 1 C-0.67 0.67 -0.34 0.34 0 0 Z " fill="#E3D7C4" transform="translate(63,180)"/>
<path d="M0 0 C2.97 0.495 2.97 0.495 6 1 C5.34 2.65 4.68 4.3 4 6 C0 1.125 0 1.125 0 0 Z " fill="#489AF3" transform="translate(24,157)"/>
<path d="M0 0 C0.66 0 1.32 0 2 0 C1.67 2.64 1.34 5.28 1 8 C0.34 8 -0.32 8 -1 8 C-0.67 5.36 -0.34 2.72 0 0 Z " fill="#CCC2B3" transform="translate(57,142)"/>
</svg>
